<svg version="1.1" viewBox="0.0 0.0 263.98425196850394 189.11548556430446" fill="none" stroke="none" stroke-linecap="square" stroke-miterlimit="10" xmlns:xlink="http://www.w3.org/1999/xlink" xmlns="http://www.w3.org/2000/svg"><clipPath id="p.0"><path d="m0 0l263.98425 0l0 189.11548l-263.98425 0l0 -189.11548z" clip-rule="nonzero"/></clipPath><g clip-path="url(#p.0)"><path fill="#000000" fill-opacity="0.0" d="m0 0l263.98425 0l0 189.11548l-263.98425 0z" fill-rule="evenodd"/><path fill="#000000" fill-opacity="0.0" d="m-5.8005247 -32.0l552.8189 0l0 537.6378l-552.8189 0z" fill-rule="evenodd"/><path fill="#000000" d="m66.6526 73.76937q0 0.375 -0.671875 0.375q-0.484375 0 -1.15625 -0.390625q-0.671875 -0.375 -1.0468788 -1.046875q-0.765625 -1.625 -0.765625 -4.03125l0.09375 -3.9375q2.9687538 -17.46875 7.000004 -35.125q1.34375 -4.703125 2.25 -8.921875q0.921875 -4.234375 1.109375 -5.390625q0 -0.28125 -0.53125 0.25q-0.515625 0.515625 -1.0 1.25q-0.484375 0.71875 -0.375 1.0l-2.40625 3.546875q-0.578125 0.578125 -2.6875 4.421875q-1.4375 3.078125 -2.5937538 4.796875l-2.6875 5.09375q-2.96875 5.46875 -3.640625 6.625q-0.96875 1.4375 -2.796875 4.984375q-0.953125 2.3125 -3.453125 5.46875q-0.765625 1.0625 -1.484375 2.3125q-0.71875 1.25 -0.90625 1.625q0 0.484375 -1.96875 3.265625q-1.96875 2.78125 -3.609375 4.609375q-2.203125 2.3125 -3.640625 3.328125q-1.4375 1.0 -2.6875 1.0q-1.640625 0 -3.5625 -1.828125q-1.25 -1.34375 -1.78125 -3.171875q-0.515625 -1.828125 -0.515625 -4.515625q0 -2.390625 0.671875 -8.0625q0.09375 -0.484375 1.828125 -10.265625q1.8125 -9.890625 2.203125 -10.84375q0.09375 -0.578125 0.09375 -1.34375q0 -0.875 -0.28125 -0.875q-0.296875 0 -1.0625 1.25q-0.28125 0.390625 -3.40625 5.390625q-3.125 4.984375 -6.671875 12.75q-5.5625 10.28125 -8.25 15.421875q-2.687499 5.125 -3.937499 7.328125q-1.640625 3.171875 -1.921875 3.46875q-1.4375 0 -3.65625 -2.40625q-0.28125 -0.578125 -0.28125 -1.0625q0 -0.671875 0.625 -2.203125q0.625 -1.53125 1.765625 -4.03125q2.984375 -5.859375 3.9375 -6.625q1.15625 -1.53125 1.34375 -3.359375q1.25 -1.71875 3.562499 -6.234375q1.4375 -2.3125 3.40625 -5.765625q1.96875 -3.453125 3.5 -6.625l2.6875 -4.703125q3.75 -6.53125 6.0 -10.078125q2.265625 -3.546875 3.40625 -4.703125q1.546875 -1.828125 1.546875 -2.875q0 -2.015625 0.8125 -3.6875q0.8125 -1.6875 1.671875 -1.5q1.15625 0 1.875 0.25q0.71875 0.234375 1.484375 1.1875q0.203125 0.28125 0.625 0.90625q0.4375 0.625 0.671875 1.34375q0.25 0.71875 0.25 1.78125q0 1.15625 -0.296875 2.875q-0.09375 1.25 -0.765625 5.671875q-0.390625 2.109375 -0.390625 2.59375q-2.484375 7.578125 -4.453125 18.953125q-1.96875 11.375 -1.96875 15.984375q0 1.0625 0.1875 1.4375q0.671875 0.484375 1.203125 0.109375q0.53125 -0.390625 1.578125 -2.5q1.25 -2.3125 4.234375 -5.953125q0.1875 -0.296875 3.734375 -6.34375q8.84375 -14.484375 17.187504 -29.078125l2.5 -3.9375q1.4375 -2.3125 2.78125 -4.28125q1.34375 -1.96875 2.109375 -2.53125q0.96875 -0.78125 1.828125 -0.78125q1.828125 0 3.265625 2.21875q1.4375 2.203125 1.4375 5.5625q0 2.59375 -1.0625 7.921875q-1.046875 5.328125 -2.78125 10.703125q-0.578125 2.6875 -1.640625 6.71875q-1.046875 4.03125 -2.203125 7.296875q-0.1875 1.625 -0.765625 4.125q-0.09375 0.484375 -0.53125 2.9375q-0.421875 2.4375 -0.234375 3.3125q-1.4375 2.578125 -1.4375 10.359375l-0.296875 2.203125q-0.1875 2.6875 -0.375 3.640625q-0.1875 0.96875 -0.578125 0.875q-0.1875 -0.09375 -0.578125 -0.09375q-0.671875 0 -0.671875 0.578125zm42.331833 -40.03125q1.546875 1.53125 1.546875 3.171875q0 1.71875 -2.3125 6.046875q-0.765625 2.203125 -1.6875 4.125q-0.90625 1.921875 -1.375 2.5l-2.21875 5.078125q-1.4375 3.171875 -3.546875 7.390625q-2.59375 5.375 -3.640625 7.96875l-1.25 2.015625q-4.796875 7.6875 -7.390625 10.75q-5.28125 4.71875 -8.171875 5.484375q-1.234375 0.375 -2.96875 0.375q-3.171875 0 -6.0 -1.390625q-2.828125 -1.390625 -3.21875 -3.21875q-0.09375 -0.671875 0.484375 -1.4375q0.578125 -0.765625 1.25 -0.765625q0.46875 0 0.765625 0.390625q0.765625 0.5625 2.25 1.09375q1.484375 0.53125 3.21875 0.53125q0.671875 0 1.828125 -0.1875q1.921875 -0.390625 4.03125 -2.3125q2.109375 -1.921875 3.84375 -4.21875q3.25 -4.796875 7.0 -12.0q-1.34375 -0.390625 -2.59375 -1.875q-1.25 -1.484375 -1.96875 -3.109375q-0.71875 -1.640625 -0.53125 -2.40625l0 -1.0625q-0.859375 0 -1.390625 -3.265625q-0.515625 -3.265625 -0.515625 -7.578125q0 -1.625 0.1875 -4.125q0.375 -1.53125 0.421875 -3.78125q0.0625 -2.265625 0.0625 -2.9375l0 -0.390625q0 -1.15625 0.234375 -1.625q0.234375 -0.484375 0.8125 -0.875q0.765625 -0.375 1.53125 -0.375q2.703125 0 2.703125 7.09375q0 1.0625 -0.203125 4.140625q-0.09375 1.34375 -0.09375 4.03125q0 4.984375 0.859375 8.828125q0.875 3.84375 2.59375 5.28125l0.578125 -1.34375q1.0625 -2.78125 1.640625 -3.546875q1.34375 -2.796875 1.53125 -3.5625q0.1875 -0.671875 1.046875 -2.203125l1.25 -2.59375q0.203125 -0.578125 1.25 -3.6875q1.0625 -3.125 2.109375 -5.046875q0.390625 -0.765625 1.15625 -2.25q0.765625 -1.5 1.25 -2.171875q0.484375 -0.671875 1.0625 -0.859375q0.765625 -0.671875 1.234375 -0.671875q0.390625 0 1.34375 0.578125z" fill-rule="nonzero"/><path fill="#000000" fill-opacity="0.0" d="m64.490814 56.32021l609.8268 0l0 231.77953l-609.8268 0z" fill-rule="evenodd"/><path fill="#40BC20" d="m112.647064 159.10521q-4.359375 0 -7.9375 -1.984375q-3.578125 -2.0 -3.578125 -7.109375q0 -2.890625 2.59375 -9.28125q3.640625 4.015625 4.734375 4.59375q1.109375 0.578125 2.359375 0.578125q3.484375 0 5.484375 -4.59375q2.015625 -4.59375 2.015625 -10.6875q0 -10.203125 -7.109375 -10.203125q-2.4375 0 -2.75 0.046875l-7.9375 37.015625l-17.90625 0l13.875 -64.859375l18.40625 -2.46875l-6.484375 23.21875l0 -1.546875q3.0 0 5.71875 -2.03125q2.71875 -2.03125 4.40625 -5.203125q1.703125 -3.171875 1.703125 -6.328125q0 -3.546875 -2.515625 -5.953125q-2.515625 -2.40625 -8.15625 -2.40625q-5.40625 0 -10.515625 2.421875q-5.109375 2.421875 -8.296875 7.21875q-3.1875 4.796875 -3.1875 11.6875q0 3.09375 0.671875 4.484375q0.671875 1.390625 0.671875 4.03125q-7.78125 0 -11.03125 -2.578125q-3.234375 -2.578125 -3.234375 -8.25q0 -7.25 5.265625 -13.5625q5.28125 -6.3125 13.75 -10.09375q8.484375 -3.78125 17.828125 -3.78125q7.15625 0 12.21875 2.328125q5.078125 2.3125 7.65625 6.265625q2.578125 3.953125 2.578125 8.671875q0 4.984375 -2.78125 9.578125q-2.78125 4.578125 -3.28125 4.75q1.421875 0.171875 4.59375 5.0625q3.1875 4.875 3.1875 11.328125q0 5.78125 -2.1875 12.59375q-2.1875 6.8125 -7.40625 11.9375q-5.21875 5.109375 -13.421875 5.109375zm33.879715 -1.046875q-5.453125 0 -8.859375 -3.46875q-3.40625 -3.484375 -3.40625 -10.046875q0 -2.609375 0.8125 -6.65625l10.5625 -49.484375l18.421875 -2.484375l-11.640625 54.671875q-0.328125 1.21875 -0.328125 2.609375q0 1.015625 0.28125 1.28125q0.296875 0.265625 1.640625 0.265625q1.984375 0 3.890625 -1.875q1.921875 -1.875 3.234375 -6.578125l8.34375 0q-4.671875 13.671875 -10.78125 17.71875q-6.09375 4.046875 -12.171875 4.046875zm30.147614 -0.1875q-7.859375 0 -12.609375 -4.1875q-4.75 -4.203125 -4.75 -12.984375q0 -6.859375 2.8125 -15.203125q2.828125 -8.359375 9.234375 -14.609375q6.421875 -6.265625 16.25 -6.265625q14.296875 0 14.296875 17.359375l-1.875 0q0.453125 -1.640625 0.921875 -1.8125q2.78125 0 6.625 -1.5625q3.84375 -1.5625 9.21875 -5.40625l2.078125 6.296875q-3.859375 4.140625 -8.625 6.34375q-4.765625 2.203125 -8.78125 2.84375q-0.671875 7.5625 -4.03125 14.484375q-3.34375 6.921875 -8.8125 10.8125q-5.453125 3.890625 -11.953125 3.890625zm3.84375 -12.640625q1.390625 0 3.265625 -2.15625q1.890625 -2.171875 3.515625 -6.453125q1.625 -4.296875 2.109375 -7.8125q-2.34375 -0.53125 -2.34375 -5.578125q0 -5.265625 2.890625 -6.484375q-0.078125 -1.234375 -0.421875 -1.75q-0.328125 -0.53125 -1.140625 -0.53125q-2.078125 0 -4.6875 4.03125q-2.59375 4.015625 -4.34375 10.1875q-1.75 6.15625 -1.75 10.765625q0 4.0 0.59375 4.890625q0.59375 0.890625 2.3125 0.890625zm41.175232 36.25q-5.234375 0 -9.28125 -3.46875q-4.046875 -3.46875 -4.046875 -8.90625q0 -4.90625 2.484375 -8.0625q2.484375 -3.140625 6.125 -4.8125q3.640625 -1.671875 8.296875 -3.09375l0.59375 1.34375q-2.140625 3.578125 -9.546875 3.578125q-6.3125 0 -10.546875 -4.328125q-4.21875 -4.34375 -4.21875 -13.125q0 -7.453125 2.96875 -15.65625q2.984375 -8.203125 9.046875 -14.078125q6.0625 -5.875 14.65625 -5.875q4.5625 0 7.171875 1.828125q2.609375 1.8125 2.609375 5.078125l-2.0 0.1875l-0.671875 -6.609375l18.015625 0l-12.21875 58.09375q-2.078125 9.953125 -7.5 13.921875q-5.421875 3.984375 -11.9375 3.984375zm0.875 -36.734375q1.484375 0 3.21875 -1.4375q1.734375 -1.453125 2.515625 -4.234375l4.796875 -22.75q-0.328125 -1.375 -1.890625 -1.375q-2.796875 0 -5.46875 3.90625q-2.671875 3.890625 -4.328125 9.875q-1.65625 5.984375 -1.65625 10.53125q0 3.9375 0.796875 4.71875q0.8125 0.765625 2.015625 0.765625zm-3.078125 24.1875q0.8125 0 1.875 -1.234375q1.078125 -1.234375 1.84375 -4.671875l0.453125 -2.234375q-1.4375 0.5 -3.734375 2.375q-2.28125 1.890625 -2.28125 4.59375q0 0.25 0.53125 0.703125q0.53125 0.46875 1.3125 0.46875z" fill-rule="nonzero"/></g></svg>